<svg xmlns="http://www.w3.org/2000/svg" xmlns:xlink="http://www.w3.org/1999/xlink" width="32" height="32" version="1.1" style=""><rect id="backgroundrect" width="100%" height="100%" x="0" y="0" fill="none" stroke="none"/>
    <!-- Generator: Sketch 63.1 (92452) - https://sketch.com -->
    <title>icon-fav-activev2</title>
    <desc>Created with Sketch.</desc>
    <defs>
        <path d="M16.277005,9.49708565 C17.2350987,8.53854203 18.5348228,8 19.8900901,8 C21.2453574,8 22.5450815,8.53854203 23.5031752,9.49708565 C24.461458,10.4549185 25,11.7546426 25,13.1099099 C25,14.4651772 24.461458,15.7649013 23.5030448,16.7228646 L16.5555186,23.6703908 C16.2485981,23.9773114 15.7509815,23.9773114 15.444061,23.6703908 L8.49653479,16.7228646 C6.50115505,14.7274848 6.50115507,11.492335 8.49653484,9.49695525 C10.4919146,7.50157548 13.7270644,7.50157545 15.7224442,9.4969552 L15.9997898,9.77430079 L16.277005,9.49708565 Z M15.9997898,22.0032043 L21.5585127,16.4444814 L22.3917176,15.6112765 C23.0553247,14.9479809 23.4281615,14.0481719 23.4281615,13.1099099 C23.4281615,12.1716479 23.0553247,11.271839 22.3917176,10.6085433 C21.728161,9.94467529 20.8283521,9.5718385 19.8900901,9.5718385 C18.9518281,9.5718385 18.0520191,9.94467529 17.388593,10.6084129 L16.5555186,11.4414873 C16.2485981,11.7484078 15.7509815,11.7484078 15.444061,11.4414873 L14.6109866,10.6084129 C13.2294479,9.22687423 10.9895312,9.22687425 9.6079925,10.6084129 C8.22645385,11.9899516 8.22645383,14.2298683 9.60799246,15.611407 L15.9997898,22.0032043 Z" id="path-1"/>
    </defs>
    
<g class="currentLayer" style=""><title>Layer 1</title><g id="GIFOS" stroke="none" stroke-width="1" fill="none" fill-rule="evenodd">
        <g id="00-UI-Kit">
            <g id="icon-fav-hover">
                <rect id="Rectangle-Copy-7" fill="#FFFFFF" fill-rule="nonzero" x="0" y="0" width="32" height="32" rx="6"/>
                <mask id="mask-2" fill="white" transform="translate(858,2777) translate(-858,-2777) ">
                    <use xlink:href="#path-1" id="svg_1"/>
                </mask>
                <use fill="#572EE5" fill-rule="nonzero" xlink:href="#path-1" y="0" x="0" id="svg_2"/>
            </g>
        </g>
    </g><polyline fill="#572ee5" stroke="#572ee5" stroke-dashoffset="" fill-rule="evenodd" marker-start="" marker-mid="" marker-end="" id="svg_3" points="15.800000000000011,11.100000000000009 15.400000000000006,11.100000000000009 15.200000000000017,11.100000000000009 15,11.100000000000009 14.800000000000011,11.100000000000009 14.600000000000023,11.100000000000009 14.600000000000023,10.900000000000006 14.400000000000006,10.900000000000006 14.400000000000006,10.700000000000003 14.200000000000017,10.700000000000003 14,10.700000000000003 14,10.5 13.800000000000011,10.5 13.600000000000023,10.299999999999997 13.600000000000023,10.100000000000009 13.400000000000006,10.100000000000009 13.400000000000006,9.900000000000006 13.200000000000017,9.900000000000006 13,9.700000000000003 12.800000000000011,9.700000000000003 12.600000000000023,9.700000000000003 12.600000000000023,9.5 12.400000000000006,9.5 12.400000000000006,9.299999999999997 12.200000000000017,9.299999999999997 12,9.299999999999997 11.800000000000011,9.299999999999997 11.600000000000023,9.299999999999997 11.400000000000006,9.299999999999997 11.200000000000017,9.5 11,9.700000000000003 10.800000000000011,9.700000000000003 10.600000000000023,9.700000000000003 10.600000000000023,9.900000000000006 10.400000000000006,9.900000000000006 10.200000000000017,9.900000000000006 10.200000000000017,10.100000000000009 10,10.100000000000009 10,10.299999999999997 9.800000000000011,10.299999999999997 9.600000000000023,10.299999999999997 9.600000000000023,10.5 9.400000000000006,10.5 9.400000000000006,10.700000000000003 9.400000000000006,10.900000000000006 9.200000000000017,10.900000000000006 9.200000000000017,11.100000000000009 9,11.100000000000009 8.800000000000011,11.299999999999997 8.800000000000011,11.5 8.600000000000023,11.5 8.400000000000006,11.5 8.400000000000006,11.700000000000003 8.400000000000006,11.900000000000006 8.200000000000017,11.900000000000006 8.200000000000017,12.100000000000009 8,12.100000000000009 8,12.299999999999997 8,12.5 8,12.700000000000003 8.200000000000017,12.700000000000003 8.200000000000017,12.900000000000006 8.400000000000006,12.900000000000006 8.400000000000006,13.100000000000009 8.600000000000023,13.299999999999997 8.600000000000023,13.5 8.800000000000011,13.700000000000003 9,13.700000000000003 9,13.900000000000006 9,14.100000000000009 9,14.299999999999997 9,14.5 9.200000000000017,14.5 9.200000000000017,14.700000000000003 9.400000000000006,14.700000000000003 9.400000000000006,14.900000000000006 9.400000000000006,15.100000000000009 9.400000000000006,15.299999999999997 9.600000000000023,15.299999999999997 9.600000000000023,15.5 9.800000000000011,15.5 9.800000000000011,15.700000000000003 10,15.700000000000003 10,15.900000000000006 10,16.10000000000001 10.200000000000017,16.10000000000001 10.200000000000017,16.299999999999997 10.200000000000017,16.5 10.400000000000006,16.5 10.600000000000023,16.5 10.600000000000023,16.700000000000003 10.600000000000023,16.900000000000006 10.800000000000011,17.10000000000001 11,17.10000000000001 11,17.299999999999997 11.200000000000017,17.5 11.400000000000006,17.5 11.400000000000006,17.700000000000003 11.600000000000023,17.700000000000003 11.600000000000023,17.900000000000006 11.800000000000011,17.900000000000006 11.800000000000011,18.10000000000001 12,18.10000000000001 12.200000000000017,18.10000000000001 12.200000000000017,18.299999999999997 12.400000000000006,18.299999999999997 12.400000000000006,18.5 12.400000000000006,18.700000000000003 12.600000000000023,18.700000000000003 12.800000000000011,18.700000000000003 12.800000000000011,18.900000000000006 13,18.900000000000006 13,19.299999999999997 13.200000000000017,19.299999999999997 13.200000000000017,19.5 13.400000000000006,19.5 13.400000000000006,19.700000000000003 13.400000000000006,19.900000000000006 13.600000000000023,19.900000000000006 13.800000000000011,19.900000000000006 13.800000000000011,20.10000000000001 13.800000000000011,20.299999999999997 14,20.299999999999997 14,20.5 14.200000000000017,20.5 14.200000000000017,20.700000000000003 14.200000000000017,20.900000000000006 14.400000000000006,20.900000000000006 14.400000000000006,21.10000000000001 14.600000000000023,21.10000000000001 14.600000000000023,21.299999999999997 14.800000000000011,21.299999999999997 14.800000000000011,21.5 15,21.5 15.200000000000017,21.5 15.200000000000017,21.700000000000003 15.400000000000006,21.700000000000003 15.600000000000023,21.700000000000003 15.600000000000023,21.900000000000006 15.800000000000011,21.900000000000006 15.800000000000011,22.10000000000001 16,22.10000000000001 16.200000000000017,22.10000000000001 16.400000000000006,22.10000000000001 16.400000000000006,21.900000000000006 16.400000000000006,21.700000000000003 16.400000000000006,21.5 16.600000000000023,21.5 16.600000000000023,21.299999999999997 16.80000000000001,21.299999999999997 16.80000000000001,21.10000000000001 16.80000000000001,20.900000000000006 17,20.900000000000006 17,20.700000000000003 17.200000000000017,20.700000000000003 17.200000000000017,20.5 17.400000000000006,20.5 17.400000000000006,20.299999999999997 17.400000000000006,20.10000000000001 17.600000000000023,20.10000000000001 17.600000000000023,19.900000000000006 17.600000000000023,19.700000000000003 17.80000000000001,19.700000000000003 18,19.700000000000003 18,19.5 18.200000000000017,19.5 18.200000000000017,19.299999999999997 18.400000000000006,19.299999999999997 18.400000000000006,19.10000000000001 18.600000000000023,19.10000000000001 18.80000000000001,18.900000000000006 18.80000000000001,18.700000000000003 19,18.700000000000003 19.200000000000017,18.700000000000003 19.200000000000017,18.5 19.200000000000017,18.299999999999997 19.400000000000006,18.299999999999997 19.400000000000006,18.10000000000001 19.600000000000023,18.10000000000001 19.80000000000001,18.10000000000001 19.80000000000001,17.900000000000006 19.80000000000001,17.700000000000003 20,17.700000000000003 20,17.5 20.200000000000017,17.5 20.400000000000006,17.5 20.400000000000006,17.299999999999997 20.400000000000006,17.10000000000001 20.600000000000023,17.10000000000001 20.80000000000001,17.10000000000001 20.80000000000001,16.900000000000006 20.80000000000001,16.700000000000003 21,16.700000000000003 21,16.5 21,16.299999999999997 21.200000000000017,16.299999999999997 21.400000000000006,16.299999999999997 21.400000000000006,16.10000000000001 21.400000000000006,15.900000000000006 21.600000000000023,15.900000000000006 21.600000000000023,15.700000000000003 21.80000000000001,15.700000000000003 21.80000000000001,15.5 22,15.5 22,15.299999999999997 22.200000000000017,15.100000000000009 22.200000000000017,14.900000000000006 22.400000000000006,14.900000000000006 22.600000000000023,14.900000000000006 22.600000000000023,14.700000000000003 22.80000000000001,14.700000000000003 22.80000000000001,14.5 23,14.5 23,14.299999999999997 23.200000000000017,14.299999999999997 23.200000000000017,14.100000000000009 23.200000000000017,13.900000000000006 23.400000000000006,13.900000000000006 23.400000000000006,13.700000000000003 23.600000000000023,13.700000000000003 23.600000000000023,13.5 23.600000000000023,13.299999999999997 23.600000000000023,13.100000000000009 23.600000000000023,12.900000000000006 23.600000000000023,12.700000000000003 23.600000000000023,12.5 23.600000000000023,12.299999999999997 23.600000000000023,12.100000000000009 23.600000000000023,11.900000000000006 23.600000000000023,11.700000000000003 23.600000000000023,11.5 23.600000000000023,11.299999999999997 23.400000000000006,11.299999999999997 23.400000000000006,11.100000000000009 23.200000000000017,10.900000000000006 23.200000000000017,10.700000000000003 23,10.700000000000003 23,10.5 22.80000000000001,10.5 22.80000000000001,10.299999999999997 22.600000000000023,10.100000000000009 22.400000000000006,10.100000000000009 22.400000000000006,9.900000000000006 22.200000000000017,9.900000000000006 22.200000000000017,9.700000000000003 22,9.700000000000003 22,9.5 21.80000000000001,9.5 21.600000000000023,9.299999999999997 21.600000000000023,9.100000000000009 21.400000000000006,9.100000000000009 21.200000000000017,9.100000000000009 21,9.100000000000009 20.80000000000001,9.100000000000009 20.600000000000023,9.100000000000009 20.400000000000006,9.100000000000009 20.200000000000017,9.100000000000009 20,9.100000000000009 19.80000000000001,8.900000000000006 19.600000000000023,8.900000000000006 19.400000000000006,8.900000000000006 19.200000000000017,8.900000000000006 19,8.900000000000006 18.80000000000001,8.900000000000006 " style="color: rgb(87, 46, 229);"/></g></svg>